<?xml version="1.0" encoding="utf-8"?>
<!-- Generator: Adobe Illustrator 17.0.0, SVG Export Plug-In . SVG Version: 6.00 Build 0)  -->
<!DOCTYPE svg PUBLIC "-//W3C//DTD SVG 1.1//EN" "http://www.w3.org/Graphics/SVG/1.1/DTD/svg11.dtd">
<svg version="1.1" id="Layer_1" xmlns="http://www.w3.org/2000/svg" xmlns:xlink="http://www.w3.org/1999/xlink" x="0px" y="0px"
	 width="443px" height="640px" viewBox="0 0 443 640" enable-background="new 0 0 443 640" xml:space="preserve">
<path fill="#B1B3B6" d="M247.912,213.732c5.062,0,9.169,4.102,9.169,9.166c0,5.058-4.107,9.162-9.169,9.162
	c-5.061,0-9.16-4.104-9.16-9.162C238.752,217.834,242.851,213.732,247.912,213.732"/>
<rect x="13.176" y="495.779" fill="#B1B3B6" width="418.368" height="4.738"/>
<rect x="106.561" y="116.44" fill="#B1B3B6" width="4.737" height="515.529"/>
<rect x="324.436" y="27.441" fill="#B1B3B6" width="4.736" height="604.528"/>
<rect x="13.176" y="332.861" fill="#B1B3B6" width="418.368" height="4.736"/>
<rect x="13.176" y="92.136" fill="#B1B3B6" width="73.484" height="4.736"/>
<rect x="129.532" y="92.136" fill="#B1B3B6" width="301.783" height="4.736"/>
<g>
	<path fill="#B1B3B6" d="M108.899,118.301c-13.522,0-24.522-10.999-24.522-24.522c0-13.523,11-24.525,24.522-24.525
		c13.523,0,24.525,11.002,24.525,24.525C133.424,107.302,122.422,118.301,108.899,118.301 M108.899,73.99
		c-10.908,0-19.787,8.88-19.787,19.789c0,10.91,8.88,19.787,19.787,19.787c10.91,0,19.785-8.878,19.785-19.787
		C128.684,82.87,119.808,73.99,108.899,73.99"/>
	<path fill="#B1B3B6" d="M211.882,434.336c-12.87,0-23.34-10.47-23.34-23.336c0-12.873,10.47-23.338,23.34-23.338
		c12.869,0,23.341,10.465,23.341,23.338C235.223,423.866,224.751,434.336,211.882,434.336 M211.882,390.027
		c-11.567,0-20.971,9.406-20.971,20.973c0,11.561,9.404,20.967,20.971,20.967s20.975-9.406,20.975-20.967
		C232.857,399.433,223.449,390.027,211.882,390.027"/>
	<path fill="#B1B3B6" d="M92.539,493.457c-7.133,0-12.936-5.806-12.936-12.94c0-7.135,5.803-12.936,12.936-12.936
		c7.136,0,12.943,5.801,12.943,12.936C105.482,487.651,99.675,493.457,92.539,493.457 M92.539,470.54
		c-5.498,0-9.978,4.477-9.978,9.978c0,5.503,4.48,9.98,9.978,9.98c5.505,0,9.985-4.477,9.985-9.98
		C102.524,475.017,98.044,470.54,92.539,470.54"/>
	<path fill="#B1B3B6" d="M126.529,493.681c-7.134,0-12.939-5.806-12.939-12.942c0-7.135,5.805-12.94,12.939-12.94
		c7.137,0,12.94,5.804,12.94,12.94C139.469,487.875,133.666,493.681,126.529,493.681 M126.529,470.761
		c-5.501,0-9.976,4.475-9.976,9.978c0,5.503,4.475,9.982,9.976,9.982c5.503,0,9.984-4.479,9.984-9.982
		C136.513,475.236,132.032,470.761,126.529,470.761"/>
	<path fill="#B1B3B6" d="M92.539,528.218c-7.133,0-12.936-5.806-12.936-12.94c0-7.135,5.803-12.94,12.936-12.94
		c7.136,0,12.943,5.804,12.943,12.94C105.482,522.412,99.675,528.218,92.539,528.218 M92.539,505.299
		c-5.498,0-9.978,4.477-9.978,9.98s4.48,9.978,9.978,9.978c5.505,0,9.985-4.475,9.985-9.978S98.044,505.299,92.539,505.299"/>
	<path fill="#B1B3B6" d="M126.529,528.44c-7.134,0-12.939-5.804-12.939-12.94c0-7.136,5.805-12.943,12.939-12.943
		c7.137,0,12.94,5.808,12.94,12.943C139.469,522.636,133.666,528.44,126.529,528.44 M126.529,505.52
		c-5.501,0-9.976,4.477-9.976,9.98c0,5.503,4.475,9.978,9.976,9.978c5.503,0,9.984-4.475,9.984-9.978
		C136.513,509.997,132.032,505.52,126.529,505.52"/>
</g>
<rect x="106.584" y="27.441" fill="#B1B3B6" width="4.74" height="44.074"/>
<rect x="234.667" y="409.816" fill="#B1B3B6" width="90.544" height="2.367"/>
<rect x="210.699" y="335.649" fill="#B1B3B6" width="2.369" height="52.103"/>
<rect x="260.338" y="94.505" fill="#B1B3B6" width="2.369" height="401.581"/>
<rect x="150.741" y="499.906" fill="#B1B3B6" width="2.37" height="45.307"/>
<rect x="210.699" y="433.938" fill="#B1B3B6" width="2.369" height="65.126"/>
<g>
	<path fill="#B1B3B6" d="M184.337,342.205c2.591,0,4.695,2.1,4.695,4.693c0,2.593-2.104,4.694-4.695,4.694
		c-2.59,0-4.69-2.102-4.69-4.694C179.647,344.305,181.748,342.205,184.337,342.205"/>
	<path fill="#B1B3B6" d="M200.575,368.337c2.594,0,4.693,2.1,4.693,4.694c0,2.589-2.098,4.689-4.693,4.689
		c-2.594,0-4.693-2.1-4.693-4.689C195.882,370.437,197.98,368.337,200.575,368.337"/>
	<path fill="#B1B3B6" d="M152.071,566.607c2.591,0,4.689,2.102,4.689,4.695c0,2.589-2.098,4.691-4.689,4.691
		c-2.592,0-4.695-2.102-4.695-4.691C147.377,568.71,149.48,566.607,152.071,566.607"/>
	<path fill="#B1B3B6" d="M313.415,102.481c2.593,0,4.694,2.1,4.694,4.693c0,2.591-2.102,4.691-4.694,4.691
		c-2.591,0-4.691-2.1-4.691-4.691C308.724,104.581,310.824,102.481,313.415,102.481"/>
	<path fill="#B1B3B6" d="M313.415,175.667c2.593,0,4.694,2.098,4.694,4.693c0,2.587-2.102,4.689-4.694,4.689
		c-2.591,0-4.691-2.102-4.691-4.689C308.724,177.765,310.824,175.667,313.415,175.667"/>
	<path fill="#B1B3B6" d="M341.243,253.646c2.592,0,4.694,2.102,4.694,4.695c0,2.589-2.102,4.691-4.694,4.691
		c-2.589,0-4.693-2.102-4.693-4.693C336.55,255.748,338.654,253.646,341.243,253.646"/>
	<path fill="#B1B3B6" d="M424.638,477.204c2.592,0,4.689,2.1,4.689,4.693c0,2.592-2.097,4.693-4.689,4.693
		c-2.591,0-4.689-2.1-4.689-4.693C419.949,479.304,422.047,477.204,424.638,477.204"/>
	<path fill="#B1B3B6" d="M75.466,106.032c2.587,0,4.694,2.098,4.694,4.693c0,2.589-2.107,4.691-4.694,4.691
		c-2.595,0-4.695-2.102-4.695-4.691C70.771,108.13,72.871,106.032,75.466,106.032"/>
	<path fill="#B1B3B6" d="M75.466,72.793c2.587,0,4.694,2.098,4.694,4.691c0,2.591-2.107,4.693-4.694,4.693
		c-2.595,0-4.695-2.102-4.695-4.693C70.771,74.892,72.871,72.793,75.466,72.793"/>
</g>
<rect x="108.764" y="571.794" fill="#B1B3B6" width="16.12" height="2.369"/>
<g>
	<path fill="#B1B3B6" d="M151.927,600.473c-5.607,0-10.163-4.558-10.163-10.163v-36.117c0-5.605,4.556-10.165,10.163-10.165
		c5.603,0,10.164,4.56,10.164,10.165v36.117C162.091,595.914,157.531,600.473,151.927,600.473 M151.927,546.394
		c-4.301,0-7.798,3.496-7.798,7.798v36.117c0,4.299,3.498,7.794,7.798,7.794c4.297,0,7.793-3.496,7.793-7.794v-36.117
		C159.72,549.89,156.224,546.394,151.927,546.394"/>
	<path fill="#B1B3B6" d="M169.984,582.414h-36.119c-5.604,0-10.161-4.56-10.161-10.164c0-5.607,4.556-10.167,10.161-10.167h36.119
		c5.603,0,10.166,4.56,10.166,10.167C180.15,577.854,175.587,582.414,169.984,582.414 M133.865,564.453
		c-4.297,0-7.794,3.496-7.794,7.798c0,4.299,3.498,7.794,7.794,7.794h36.119c4.301,0,7.796-3.496,7.796-7.794
		c0-4.302-3.496-7.798-7.796-7.798H133.865z"/>
</g>
<rect x="181.832" y="191.334" fill="#B1B3B6" width="144.975" height="2.369"/>
<rect x="261.522" y="268.972" fill="#B1B3B6" width="65.286" height="2.367"/>
<g>
	<path fill="#232629" d="M233.809,448.3v-17.729c0-5.323,1.774-5.323,1.774-5.323h-7.096c0,0,1.775,0,1.775,5.323v14.532
		l-5.32-3.323v-18.306c0-5.317,1.771-5.317,1.771-5.317h-7.096c0,0,1.772,0,1.772,5.317v16.089l-7.098-4.431v-11.658
		c0-5.317,1.776-5.317,1.776-5.317h-7.098c0,0,1.778,0,1.778,5.317v9.44l-5.302-3.314c0.201-4.348,1.753-4.352,1.753-4.352h-7.092
		c0,0,1.773,0,1.773,5.323h-0.002V448.3c0,5.323-1.772,5.323-1.772,5.323h7.092c0,0-1.772,0-1.772-5.323v-14.532l5.321,3.325v18.303
		c0,5.319-1.778,5.321-1.778,5.321h7.098c0,0-1.776-0.002-1.776-5.321v-16.087l7.098,4.437v11.65c0,5.319-1.772,5.321-1.772,5.321
		h7.096c0,0-1.771-0.002-1.771-5.321v-9.433l5.3,3.31c-0.204,4.348-1.755,4.35-1.755,4.35h7.096
		C235.584,453.623,233.809,453.623,233.809,448.3"/>
	<path fill="#232629" d="M213.628,471.244c0.195,0,0.339,0.201,0.339,0.201v-1.07c0,0-0.144,0.21-0.339,0.21l-2.609-0.002
		l-0.003-1.886l3.215-0.004c0.192,0,0.327,0.218,0.327,0.218l-0.002-1.108c0,0-0.133,0.223-0.325,0.223h-4.15
		c0,0,0.18,0.15,0.18,0.343v5.162c0,0.188-0.186,0.339-0.186,0.339h4.156c0.192,0,0.33,0.214,0.33,0.214v-1.096
		c0,0-0.138,0.214-0.33,0.214l-3.215,0.004v-1.966L213.628,471.244z"/>
	<path fill="#232629" d="M252.999,471.244c0.194,0,0.346,0.203,0.346,0.203v-1.072c0,0-0.151,0.21-0.346,0.21l-2.602-0.002
		l-0.005-1.886l3.215-0.004c0.193,0,0.328,0.218,0.328,0.218l-0.002-1.108c0,0-0.133,0.223-0.326,0.223h-4.151
		c0,0,0.18,0.152,0.18,0.343v5.158c0,0.191-0.184,0.343-0.184,0.343l4.155-0.002c0.193,0,0.331,0.216,0.331,0.216l-0.004-1.093
		c0,0-0.134,0.21-0.328,0.21l-3.215,0.004v-1.966L252.999,471.244z"/>
	<path fill="#232629" d="M181.876,467.862l4.463,4.371l-0.003-3.78c0-0.28-0.221-0.434-0.221-0.434h1.218
		c0,0-0.208,0.157-0.208,0.437l-0.01,5.569l-4.465-4.397v3.903c0,0.188,0.218,0.333,0.218,0.333h-1.202c0,0,0.212-0.146,0.212-0.333
		L181.876,467.862z"/>
	<path fill="#232629" d="M191.755,468.021c1.145-0.21,2.44,0.085,3.239,0.971c1.028,1.087,1.004,2.973-0.047,4.039
		c-1.257,1.276-3.536,1.305-4.852,0.106c-0.968-0.883-1.186-2.43-0.568-3.572C189.968,468.731,190.835,468.178,191.755,468.021
		 M191.743,468.743c-0.727,0.159-1.388,0.674-1.64,1.386c-0.28,0.81-0.158,1.805,0.455,2.437c0.868,0.882,2.366,0.966,3.404,0.341
		c1.251-0.74,1.36-2.753,0.247-3.668C193.536,468.676,192.585,468.555,191.743,468.743"/>
	<path fill="#232629" d="M230.639,467.983c1.149-0.21,2.441,0.087,3.244,0.97c1.026,1.091,1.001,2.975-0.047,4.039
		c-1.262,1.278-3.537,1.309-4.854,0.104c-0.97-0.879-1.187-2.428-0.568-3.566C228.852,468.692,229.721,468.142,230.639,467.983
		 M230.632,468.707c-0.703,0.153-1.345,0.631-1.61,1.312c-0.35,0.869-0.189,1.977,0.526,2.619c0.912,0.788,2.362,0.839,3.368,0.187
		c1.192-0.771,1.269-2.729,0.18-3.623C232.425,468.639,231.473,468.517,230.632,468.707"/>
	<path fill="#232629" d="M244.531,468.114c0.845-0.318,1.855-0.275,2.611,0.24c0.373,0.239,0.549,0.663,0.869,0.949
		c-0.354,0.095-0.706,0.214-1.04,0.354c0.016-0.174,0.109-0.4-0.059-0.526c-0.483-0.504-1.263-0.587-1.911-0.434
		c-0.369,0.1-0.797,0.331-0.867,0.752c-0.076,0.324,0.222,0.559,0.483,0.669c0.894,0.379,1.941,0.347,2.748,0.924
		c0.623,0.42,0.718,1.352,0.309,1.947c-0.381,0.574-1.072,0.862-1.738,0.954c-0.862,0.1-1.837-0.087-2.437-0.761
		c-0.222-0.242-0.32-0.615-0.667-0.723c0.339-0.108,0.68-0.227,1.017-0.348c0.028,0.267,0.096,0.553,0.331,0.72
		c0.533,0.456,1.303,0.513,1.967,0.362c0.463-0.114,0.959-0.437,0.993-0.953c0.041-0.318-0.186-0.589-0.454-0.716
		c-0.875-0.449-1.939-0.369-2.774-0.918c-0.399-0.239-0.625-0.714-0.549-1.174C243.429,468.79,243.966,468.328,244.531,468.114"/>
	<path fill="#232629" d="M197.283,468.019c0,0,1.956-0.002,2.933,0.002c0.445,0.011,0.915,0.072,1.284,0.337
		c0.592,0.409,0.824,1.303,0.424,1.922c-0.146,0.246-0.397,0.384-0.631,0.526c0.278,0.15,0.572,0.305,0.756,0.572
		c0.464,0.65,0.259,1.64-0.384,2.098c-0.415,0.303-0.946,0.394-1.453,0.394c-0.976,0-2.932-0.006-2.932-0.006
		s0.223-0.146,0.223-0.333l-0.009-5.21C197.496,468.131,197.283,468.019,197.283,468.019 M198.264,468.697l0.002,1.829l1.73,0.006
		c0.335-0.011,0.694-0.034,0.988-0.216c0.432-0.263,0.483-0.926,0.17-1.297c-0.276-0.263-0.682-0.301-1.049-0.322H198.264z
		 M198.266,471.205l-0.002,1.992l1.846,0.004c0.377-0.01,0.784-0.046,1.097-0.29c0.401-0.331,0.436-1.034,0.043-1.388
		c-0.314-0.269-0.746-0.312-1.146-0.318H198.266z"/>
	<path fill="#232629" d="M204.243,468.019h1.178c0,0-0.21,0.15-0.21,0.339v4.848l3.198-0.002c0.2,0,0.344-0.29,0.344-0.29
		l0.002,1.17c0,0-0.146-0.214-0.338-0.214h-4.147c0,0,0.182-0.152,0.182-0.339c0-1.337,0-5.174,0-5.174
		C204.451,468.169,204.243,468.019,204.243,468.019"/>
	<path fill="#232629" d="M220.976,468.021h1.204c0,0-0.227,0.148-0.227,0.345v1.687l3.456,1.127v-2.814
		c0-0.197-0.214-0.345-0.214-0.345h1.203c0,0-0.218,0.148-0.218,0.345l0.004,5.151c0,0.203,0.218,0.348,0.218,0.348h-1.206
		c0,0,0.216-0.146,0.216-0.337l-0.002-1.695l-3.456-1.119l0.008,2.814c0,0.189,0.214,0.337,0.214,0.337h-1.203
		c0,0,0.221-0.146,0.221-0.337l-0.008-5.16C221.184,468.163,220.976,468.021,220.976,468.021"/>
	<path fill="#232629" d="M236.542,468.356v3.242c0.006,0.502,0.17,1.002,0.479,1.403c0.735,0.985,2.206,1.235,3.28,0.682
		c0.742-0.367,1.257-1.151,1.288-1.979l0.008-3.335c0-0.203,0.206-0.348,0.206-0.348H240.6c0,0,0.215,0.146,0.215,0.339l0.005,2.911
		c0.008,0.451-0.055,0.93-0.326,1.309c-0.621,0.898-2.129,0.922-2.801,0.066c-0.286-0.35-0.372-0.822-0.379-1.265v-3.028
		c0-0.186,0.214-0.335,0.214-0.335h-1.191C236.337,468.017,236.542,468.175,236.542,468.356"/>
</g>
<text transform="matrix(0 -1 1 0 251.8945 316.9634)" fill="#414042" font-family="'Quicksand-Bold'" font-size="10.4439">JL. DENPASAR</text>
<text transform="matrix(1 0 0 1 119.8354 327.2773)" fill="#414042" font-family="'Quicksand-Bold'" font-size="10.4439">JL. PROF. DR. SATRIO</text>
<text transform="matrix(0 -1 1 0 101.5 276.8188)" fill="#414042" font-family="'Quicksand-Bold'" font-size="10.4439">JL. JEND. SUDIRMAN</text>
<text transform="matrix(1 0 0 1 145.9565 110.7231)" fill="#414042" font-family="'Quicksand-Bold'" font-size="10.4439">JL. IMAM BONJOL</text>
<text transform="matrix(0 -1 1 0 343.3662 455.8135)" fill="#414042" font-family="'Quicksand-Bold'" font-size="10.4439">JL. RASUNA SAID</text>
<text transform="matrix(1 0 0 1 163.604 515.2783)" fill="#414042" font-family="'Quicksand-Bold'" font-size="10.4439">JL. JEND. GATOT SUBROTO</text>
<text transform="matrix(1 0 0 1 300.2002 20.3091)" fill="#B1B3B6" font-family="'Quicksand-Bold'" font-size="10.4439">MENTENG</text>
<text transform="matrix(1 0 0 1 290.3672 125.0024)"><tspan x="0" y="0" fill="#B1B3B6" font-family="'Quicksand-Bold'" font-size="10.4439">FOUR</tspan><tspan x="-14.204" y="12.368" fill="#B1B3B6" font-family="'Quicksand-Bold'" font-size="10.4439">SEASON</tspan></text>
<text transform="matrix(1 0 0 1 263.7666 156.2695)"><tspan x="0" y="0" fill="#B1B3B6" font-family="'Quicksand-Bold'" font-size="10.4439">SETIABUDI</tspan><tspan x="34.016" y="12.368" fill="#B1B3B6" font-family="'Quicksand-Bold'" font-size="10.4439">ONE</tspan></text>
<text transform="matrix(1 0 0 1 350.374 261.9531)" fill="#B1B3B6" font-family="'Quicksand-Bold'" font-size="10.4439">RS MMC</text>
<text transform="matrix(1 0 0 1 140.5312 69.3828)" fill="#B1B3B6" font-family="'Quicksand-Bold'" font-size="10.4439">BUNDARAN HI</text>
<text transform="matrix(1 0 0 1 32.4917 69.2539)"><tspan x="0" y="0" fill="#B1B3B6" font-family="'Quicksand-Bold'" font-size="10.4439">PLAZA</tspan><tspan x="-27.593" y="12.368" fill="#B1B3B6" font-family="'Quicksand-Bold'" font-size="10.4439">INDONESIA</tspan></text>
<text transform="matrix(1 0 0 1 27.0981 114.4053)"><tspan x="0" y="0" fill="#B1B3B6" font-family="'Quicksand-Bold'" font-size="10.4439">GRAND</tspan><tspan x="-22.684" y="12.368" fill="#B1B3B6" font-family="'Quicksand-Bold'" font-size="10.4439">INDONESIA</tspan></text>
<text transform="matrix(1 0 0 1 122.936 350.623)"><tspan x="0" y="0" fill="#B1B3B6" font-family="'Quicksand-Bold'" font-size="10.4439">CIPUTRA</tspan><tspan x="6.193" y="12.368" fill="#B1B3B6" font-family="'Quicksand-Bold'" font-size="10.4439">WORLD</tspan></text>
<text transform="matrix(1 0 0 1 169.2295 377.1406)"><tspan x="0" y="0" fill="#B1B3B6" font-family="'Quicksand-Bold'" font-size="10.4439">RITZ</tspan><tspan x="-28.397" y="12.368" fill="#B1B3B6" font-family="'Quicksand-Bold'" font-size="10.4439">CARLTON</tspan></text>
<text transform="matrix(1 0 0 1 138.75 430.4678)"><tspan x="0" y="0" fill="#B1B3B6" font-family="'Quicksand-Bold'" font-size="10.4439">MEGA</tspan><tspan x="-14.778" y="12.368" fill="#B1B3B6" font-family="'Quicksand-Bold'" font-size="10.4439">KUNINGAN</tspan></text>
<text transform="matrix(1 0 0 1 183.3682 569.1162)"><tspan x="0" y="0" fill="#B1B3B6" font-family="'Quicksand-Bold'" font-size="10.4439">PACIFIC PLACE</tspan><tspan x="0" y="12.368" fill="#B1B3B6" font-family="'Quicksand-Bold'" font-size="10.4439">SCBD</tspan></text>
<text transform="matrix(1 0 0 1 361.7705 471.0518)" fill="#B1B3B6" font-family="'Quicksand-Bold'" font-size="10.4439">RS MEDISTRA</text>
</svg>
